<mxfile host="app.diagrams.net" modified="2020-12-20T07:17:19.327Z" agent="5.0 (Macintosh; Intel Mac OS X 10_15_5) AppleWebKit/537.36 (KHTML, like Gecko) Chrome/87.0.4280.88 Safari/537.36" etag="qhWbEiYzeHsKVLS7ycvR" version="14.0.4" type="github">
  <diagram id="ltEULJLLvogZ89pORJv0" name="Page-1">
    <mxGraphModel dx="556" dy="529" grid="1" gridSize="10" guides="1" tooltips="1" connect="1" arrows="1" fold="1" page="1" pageScale="1" pageWidth="850" pageHeight="1100" math="1" shadow="0">
      <root>
        <mxCell id="0" />
        <mxCell id="1" parent="0" />
        <mxCell id="qVPC-9UD2aIQqUdPAprL-5" value="" style="edgeStyle=orthogonalEdgeStyle;rounded=1;orthogonalLoop=1;jettySize=auto;html=1;startArrow=block;startFill=1;startSize=3;endArrow=none;endFill=0;endSize=3;strokeColor=#000000;strokeWidth=1;fontSize=12;labelBackgroundColor=none;labelPosition=left;verticalLabelPosition=middle;align=right;verticalAlign=middle;exitX=0;exitY=0.5;exitDx=0;exitDy=0;" edge="1" parent="1" source="qVPC-9UD2aIQqUdPAprL-105">
          <mxGeometry y="-40" as="geometry">
            <mxPoint x="160" y="260" as="targetPoint" />
            <mxPoint x="250" y="220" as="sourcePoint" />
            <mxPoint x="-65" y="60" as="offset" />
            <Array as="points">
              <mxPoint x="240" y="205" />
              <mxPoint x="240" y="240" />
              <mxPoint x="160" y="240" />
            </Array>
          </mxGeometry>
        </mxCell>
        <mxCell id="qVPC-9UD2aIQqUdPAprL-35" value="&lt;span style=&quot;font-size: 12px ; text-align: right&quot;&gt;$$H^{(1)}_q$$&lt;/span&gt;" style="edgeLabel;html=1;align=center;verticalAlign=middle;resizable=0;points=[];labelBackgroundColor=none;" vertex="1" connectable="0" parent="qVPC-9UD2aIQqUdPAprL-5">
          <mxGeometry relative="1" as="geometry">
            <mxPoint x="-17" y="-20" as="offset" />
          </mxGeometry>
        </mxCell>
        <mxCell id="qVPC-9UD2aIQqUdPAprL-30" value="" style="edgeStyle=orthogonalEdgeStyle;rounded=1;orthogonalLoop=1;jettySize=auto;html=1;startArrow=block;startFill=1;startSize=3;endArrow=none;endFill=0;endSize=3;strokeColor=#000000;strokeWidth=1;fontSize=12;labelBackgroundColor=none;labelPosition=left;verticalLabelPosition=middle;align=right;verticalAlign=middle;exitX=0;exitY=0.5;exitDx=0;exitDy=0;" edge="1" parent="1" source="qVPC-9UD2aIQqUdPAprL-51">
          <mxGeometry y="40" as="geometry">
            <mxPoint x="160" y="480" as="targetPoint" />
            <mxPoint x="190" y="540" as="sourcePoint" />
            <mxPoint x="-30" as="offset" />
            <Array as="points">
              <mxPoint x="240" y="495" />
              <mxPoint x="240" y="520" />
              <mxPoint x="160" y="520" />
            </Array>
          </mxGeometry>
        </mxCell>
        <mxCell id="qVPC-9UD2aIQqUdPAprL-40" value="&lt;span style=&quot;font-size: 12px ; text-align: right&quot;&gt;$$H^{(l_q)}_q$$&lt;/span&gt;" style="edgeLabel;html=1;align=center;verticalAlign=middle;resizable=0;points=[];labelBackgroundColor=none;" vertex="1" connectable="0" parent="qVPC-9UD2aIQqUdPAprL-30">
          <mxGeometry relative="1" as="geometry">
            <mxPoint x="-2" y="-20" as="offset" />
          </mxGeometry>
        </mxCell>
        <mxCell id="qVPC-9UD2aIQqUdPAprL-31" value="" style="edgeStyle=orthogonalEdgeStyle;rounded=1;orthogonalLoop=1;jettySize=auto;html=1;startArrow=block;startFill=1;startSize=3;endArrow=none;endFill=0;endSize=3;strokeColor=#000000;strokeWidth=1;fontSize=12;labelBackgroundColor=none;labelPosition=left;verticalLabelPosition=middle;align=right;verticalAlign=middle;exitX=0;exitY=0.5;exitDx=0;exitDy=0;" edge="1" parent="1" source="qVPC-9UD2aIQqUdPAprL-93">
          <mxGeometry x="30" as="geometry">
            <mxPoint x="150" y="380" as="targetPoint" />
            <mxPoint x="240" y="380" as="sourcePoint" />
            <mxPoint x="-30" as="offset" />
            <Array as="points">
              <mxPoint x="240" y="350" />
              <mxPoint x="240" y="380" />
            </Array>
          </mxGeometry>
        </mxCell>
        <mxCell id="qVPC-9UD2aIQqUdPAprL-39" value="&lt;span style=&quot;font-size: 12px ; text-align: right&quot;&gt;$$H^{(t)}_q$$&lt;/span&gt;" style="edgeLabel;html=1;align=center;verticalAlign=middle;resizable=0;points=[];labelBackgroundColor=none;" vertex="1" connectable="0" parent="qVPC-9UD2aIQqUdPAprL-31">
          <mxGeometry relative="1" as="geometry">
            <mxPoint x="-20" y="-20" as="offset" />
          </mxGeometry>
        </mxCell>
        <mxCell id="qVPC-9UD2aIQqUdPAprL-32" value="" style="endArrow=none;dashed=1;html=1;" edge="1" parent="1">
          <mxGeometry width="50" height="50" relative="1" as="geometry">
            <mxPoint x="160" y="340" as="sourcePoint" />
            <mxPoint x="160" y="260" as="targetPoint" />
          </mxGeometry>
        </mxCell>
        <mxCell id="qVPC-9UD2aIQqUdPAprL-84" style="edgeStyle=orthogonalEdgeStyle;rounded=1;orthogonalLoop=1;jettySize=auto;html=1;exitX=1;exitY=0.5;exitDx=0;exitDy=0;entryX=0.5;entryY=1;entryDx=0;entryDy=0;" edge="1" parent="1" source="qVPC-9UD2aIQqUdPAprL-41" target="qVPC-9UD2aIQqUdPAprL-81">
          <mxGeometry relative="1" as="geometry" />
        </mxCell>
        <mxCell id="qVPC-9UD2aIQqUdPAprL-41" value="$$\overleftarrow{\text{LSTM}}$$" style="rounded=1;whiteSpace=wrap;html=1;labelBackgroundColor=none;fillColor=#dae8fc;strokeColor=#6c8ebf;" vertex="1" parent="1">
          <mxGeometry x="320" y="540" width="60" height="30" as="geometry" />
        </mxCell>
        <mxCell id="qVPC-9UD2aIQqUdPAprL-87" style="edgeStyle=orthogonalEdgeStyle;rounded=1;orthogonalLoop=1;jettySize=auto;html=1;exitX=1;exitY=0.5;exitDx=0;exitDy=0;entryX=0.5;entryY=0;entryDx=0;entryDy=0;" edge="1" parent="1" source="qVPC-9UD2aIQqUdPAprL-51" target="qVPC-9UD2aIQqUdPAprL-81">
          <mxGeometry relative="1" as="geometry">
            <Array as="points">
              <mxPoint x="400" y="495" />
            </Array>
          </mxGeometry>
        </mxCell>
        <mxCell id="qVPC-9UD2aIQqUdPAprL-51" value="$$\overrightarrow{\text{LSTM}}$$" style="rounded=1;whiteSpace=wrap;html=1;labelBackgroundColor=none;fillColor=#d5e8d4;strokeColor=#82b366;" vertex="1" parent="1">
          <mxGeometry x="260" y="480" width="60" height="30" as="geometry" />
        </mxCell>
        <mxCell id="qVPC-9UD2aIQqUdPAprL-54" value="" style="endArrow=classic;html=1;edgeStyle=orthogonalEdgeStyle;entryX=0;entryY=0.5;entryDx=0;entryDy=0;" edge="1" parent="1" target="qVPC-9UD2aIQqUdPAprL-41">
          <mxGeometry width="50" height="50" relative="1" as="geometry">
            <mxPoint x="200" y="520" as="sourcePoint" />
            <mxPoint x="300" y="555" as="targetPoint" />
            <Array as="points">
              <mxPoint x="210" y="520" />
              <mxPoint x="240" y="520" />
              <mxPoint x="240" y="555" />
            </Array>
          </mxGeometry>
        </mxCell>
        <mxCell id="qVPC-9UD2aIQqUdPAprL-134" style="edgeStyle=orthogonalEdgeStyle;rounded=1;jumpStyle=arc;jumpSize=10;orthogonalLoop=1;jettySize=auto;html=1;exitX=1;exitY=0.5;exitDx=0;exitDy=0;labelBackgroundColor=none;endArrow=none;endFill=0;" edge="1" parent="1" source="qVPC-9UD2aIQqUdPAprL-81">
          <mxGeometry relative="1" as="geometry">
            <mxPoint x="480" y="500" as="targetPoint" />
          </mxGeometry>
        </mxCell>
        <mxCell id="qVPC-9UD2aIQqUdPAprL-138" value="$$\overrightarrow{y_{l_q}} \mathbin \Vert \overleftarrow{y_{l_q}}$$" style="edgeLabel;html=1;align=center;verticalAlign=middle;resizable=0;points=[];labelBackgroundColor=none;" vertex="1" connectable="0" parent="qVPC-9UD2aIQqUdPAprL-134">
          <mxGeometry x="-0.5778" y="-1" relative="1" as="geometry">
            <mxPoint x="6" y="-16" as="offset" />
          </mxGeometry>
        </mxCell>
        <mxCell id="qVPC-9UD2aIQqUdPAprL-81" value="$$\mathbin\Vert$$" style="ellipse;whiteSpace=wrap;html=1;labelBackgroundColor=none;fillColor=#f5f5f5;strokeColor=#666666;fontColor=#333333;" vertex="1" parent="1">
          <mxGeometry x="385" y="510" width="30" height="30" as="geometry" />
        </mxCell>
        <mxCell id="qVPC-9UD2aIQqUdPAprL-89" style="edgeStyle=orthogonalEdgeStyle;rounded=1;orthogonalLoop=1;jettySize=auto;html=1;exitX=1;exitY=0.5;exitDx=0;exitDy=0;entryX=0.5;entryY=1;entryDx=0;entryDy=0;" edge="1" parent="1" source="qVPC-9UD2aIQqUdPAprL-90" target="qVPC-9UD2aIQqUdPAprL-95">
          <mxGeometry relative="1" as="geometry" />
        </mxCell>
        <mxCell id="qVPC-9UD2aIQqUdPAprL-90" value="$$\overleftarrow{\text{LSTM}}$$" style="rounded=1;whiteSpace=wrap;html=1;labelBackgroundColor=none;fillColor=#dae8fc;strokeColor=#6c8ebf;" vertex="1" parent="1">
          <mxGeometry x="320" y="395" width="60" height="30" as="geometry" />
        </mxCell>
        <mxCell id="qVPC-9UD2aIQqUdPAprL-92" style="edgeStyle=orthogonalEdgeStyle;rounded=1;orthogonalLoop=1;jettySize=auto;html=1;exitX=1;exitY=0.5;exitDx=0;exitDy=0;entryX=0.5;entryY=0;entryDx=0;entryDy=0;" edge="1" parent="1" source="qVPC-9UD2aIQqUdPAprL-93" target="qVPC-9UD2aIQqUdPAprL-95">
          <mxGeometry relative="1" as="geometry">
            <Array as="points">
              <mxPoint x="400" y="350" />
            </Array>
          </mxGeometry>
        </mxCell>
        <mxCell id="qVPC-9UD2aIQqUdPAprL-93" value="$$\overrightarrow{\text{LSTM}}$$" style="rounded=1;whiteSpace=wrap;html=1;labelBackgroundColor=none;fillColor=#d5e8d4;strokeColor=#82b366;" vertex="1" parent="1">
          <mxGeometry x="260" y="335" width="60" height="30" as="geometry" />
        </mxCell>
        <mxCell id="qVPC-9UD2aIQqUdPAprL-94" value="&lt;span&gt;$$\overrightarrow{y_t} \mathbin\Vert \overleftarrow{y_t}&lt;br&gt;$$&lt;/span&gt;" style="edgeLabel;html=1;align=center;verticalAlign=middle;resizable=0;points=[];labelBackgroundColor=none;" vertex="1" connectable="0" parent="1">
          <mxGeometry x="440" y="365" as="geometry" />
        </mxCell>
        <mxCell id="qVPC-9UD2aIQqUdPAprL-101" style="edgeStyle=none;rounded=1;jumpStyle=arc;jumpSize=10;orthogonalLoop=1;jettySize=auto;html=1;exitX=1;exitY=0.5;exitDx=0;exitDy=0;" edge="1" parent="1" source="qVPC-9UD2aIQqUdPAprL-95">
          <mxGeometry relative="1" as="geometry">
            <mxPoint x="560" y="380" as="targetPoint" />
          </mxGeometry>
        </mxCell>
        <mxCell id="qVPC-9UD2aIQqUdPAprL-95" value="$$\mathbin\Vert$$" style="ellipse;whiteSpace=wrap;html=1;labelBackgroundColor=none;fillColor=#f5f5f5;strokeColor=#666666;fontColor=#333333;" vertex="1" parent="1">
          <mxGeometry x="385" y="365" width="30" height="30" as="geometry" />
        </mxCell>
        <mxCell id="qVPC-9UD2aIQqUdPAprL-97" value="" style="endArrow=none;html=1;jumpStyle=arc;exitX=0.5;exitY=0;exitDx=0;exitDy=0;jumpSize=10;endFill=0;" edge="1" parent="1" source="qVPC-9UD2aIQqUdPAprL-41">
          <mxGeometry width="50" height="50" relative="1" as="geometry">
            <mxPoint x="450" y="490" as="sourcePoint" />
            <mxPoint x="350" y="470" as="targetPoint" />
          </mxGeometry>
        </mxCell>
        <mxCell id="qVPC-9UD2aIQqUdPAprL-98" value="" style="endArrow=classic;html=1;edgeStyle=orthogonalEdgeStyle;entryX=0;entryY=0.5;entryDx=0;entryDy=0;" edge="1" parent="1" target="qVPC-9UD2aIQqUdPAprL-90">
          <mxGeometry width="50" height="50" relative="1" as="geometry">
            <mxPoint x="200" y="380" as="sourcePoint" />
            <mxPoint x="320" y="415" as="targetPoint" />
            <Array as="points">
              <mxPoint x="240" y="380" />
              <mxPoint x="240" y="410" />
            </Array>
          </mxGeometry>
        </mxCell>
        <mxCell id="qVPC-9UD2aIQqUdPAprL-99" value="" style="endArrow=none;html=1;jumpStyle=arc;exitX=0.5;exitY=1;exitDx=0;exitDy=0;jumpSize=10;endFill=0;" edge="1" parent="1" source="qVPC-9UD2aIQqUdPAprL-93">
          <mxGeometry width="50" height="50" relative="1" as="geometry">
            <mxPoint x="360" y="510" as="sourcePoint" />
            <mxPoint x="290" y="430" as="targetPoint" />
          </mxGeometry>
        </mxCell>
        <mxCell id="qVPC-9UD2aIQqUdPAprL-100" value="" style="endArrow=classic;html=1;jumpStyle=arc;exitX=0.5;exitY=1;exitDx=0;exitDy=0;jumpSize=10;edgeStyle=orthogonalEdgeStyle;entryX=0.5;entryY=1;entryDx=0;entryDy=0;" edge="1" parent="1" source="qVPC-9UD2aIQqUdPAprL-51" target="qVPC-9UD2aIQqUdPAprL-155">
          <mxGeometry width="50" height="50" relative="1" as="geometry">
            <mxPoint x="370" y="560" as="sourcePoint" />
            <mxPoint x="500" y="610" as="targetPoint" />
            <Array as="points">
              <mxPoint x="290" y="590" />
              <mxPoint x="520" y="590" />
            </Array>
          </mxGeometry>
        </mxCell>
        <mxCell id="qVPC-9UD2aIQqUdPAprL-102" style="edgeStyle=orthogonalEdgeStyle;rounded=1;orthogonalLoop=1;jettySize=auto;html=1;exitX=1;exitY=0.5;exitDx=0;exitDy=0;entryX=0.5;entryY=1;entryDx=0;entryDy=0;" edge="1" parent="1" source="qVPC-9UD2aIQqUdPAprL-103" target="qVPC-9UD2aIQqUdPAprL-107">
          <mxGeometry relative="1" as="geometry" />
        </mxCell>
        <mxCell id="qVPC-9UD2aIQqUdPAprL-103" value="$$\overleftarrow{\text{LSTM}}$$" style="rounded=1;whiteSpace=wrap;html=1;labelBackgroundColor=none;fillColor=#dae8fc;strokeColor=#6c8ebf;" vertex="1" parent="1">
          <mxGeometry x="320" y="250" width="60" height="30" as="geometry" />
        </mxCell>
        <mxCell id="qVPC-9UD2aIQqUdPAprL-104" style="edgeStyle=orthogonalEdgeStyle;rounded=1;orthogonalLoop=1;jettySize=auto;html=1;exitX=1;exitY=0.5;exitDx=0;exitDy=0;entryX=0.5;entryY=0;entryDx=0;entryDy=0;" edge="1" parent="1" source="qVPC-9UD2aIQqUdPAprL-105" target="qVPC-9UD2aIQqUdPAprL-107">
          <mxGeometry relative="1" as="geometry">
            <Array as="points">
              <mxPoint x="400" y="205" />
            </Array>
          </mxGeometry>
        </mxCell>
        <mxCell id="qVPC-9UD2aIQqUdPAprL-105" value="$$\overrightarrow{\text{LSTM}}$$" style="rounded=1;whiteSpace=wrap;html=1;labelBackgroundColor=none;fillColor=#d5e8d4;strokeColor=#82b366;" vertex="1" parent="1">
          <mxGeometry x="260" y="190" width="60" height="30" as="geometry" />
        </mxCell>
        <mxCell id="qVPC-9UD2aIQqUdPAprL-106" value="&lt;span&gt;$$\overrightarrow{y_1} \mathbin\Vert \overleftarrow{y_1}&lt;br&gt;$$&lt;/span&gt;" style="edgeLabel;html=1;align=center;verticalAlign=middle;resizable=0;points=[];labelBackgroundColor=none;" vertex="1" connectable="0" parent="1">
          <mxGeometry x="440" y="220" as="geometry" />
        </mxCell>
        <mxCell id="qVPC-9UD2aIQqUdPAprL-129" style="edgeStyle=orthogonalEdgeStyle;rounded=1;jumpStyle=arc;jumpSize=10;orthogonalLoop=1;jettySize=auto;html=1;exitX=1;exitY=0.5;exitDx=0;exitDy=0;labelBackgroundColor=none;endArrow=none;endFill=0;" edge="1" parent="1" source="qVPC-9UD2aIQqUdPAprL-107">
          <mxGeometry relative="1" as="geometry">
            <mxPoint x="480" y="250" as="targetPoint" />
            <Array as="points">
              <mxPoint x="480" y="235" />
            </Array>
          </mxGeometry>
        </mxCell>
        <mxCell id="qVPC-9UD2aIQqUdPAprL-107" value="$$\mathbin\Vert$$" style="ellipse;whiteSpace=wrap;html=1;labelBackgroundColor=none;fillColor=#f5f5f5;strokeColor=#666666;fontColor=#333333;" vertex="1" parent="1">
          <mxGeometry x="385" y="220" width="30" height="30" as="geometry" />
        </mxCell>
        <mxCell id="qVPC-9UD2aIQqUdPAprL-108" value="" style="endArrow=classic;html=1;edgeStyle=orthogonalEdgeStyle;entryX=0;entryY=0.5;entryDx=0;entryDy=0;" edge="1" parent="1" target="qVPC-9UD2aIQqUdPAprL-103">
          <mxGeometry width="50" height="50" relative="1" as="geometry">
            <mxPoint x="200" y="240" as="sourcePoint" />
            <mxPoint x="320" y="270" as="targetPoint" />
            <Array as="points">
              <mxPoint x="240" y="240" />
              <mxPoint x="240" y="265" />
            </Array>
          </mxGeometry>
        </mxCell>
        <mxCell id="qVPC-9UD2aIQqUdPAprL-110" value="" style="endArrow=classic;html=1;jumpStyle=arc;exitX=0.5;exitY=0;exitDx=0;exitDy=0;jumpSize=10;edgeStyle=orthogonalEdgeStyle;entryX=0.5;entryY=0;entryDx=0;entryDy=0;" edge="1" parent="1" source="qVPC-9UD2aIQqUdPAprL-103" target="qVPC-9UD2aIQqUdPAprL-155">
          <mxGeometry width="50" height="50" relative="1" as="geometry">
            <mxPoint x="310" y="385" as="sourcePoint" />
            <mxPoint x="520" y="220" as="targetPoint" />
            <Array as="points">
              <mxPoint x="350" y="180" />
              <mxPoint x="520" y="180" />
            </Array>
          </mxGeometry>
        </mxCell>
        <mxCell id="qVPC-9UD2aIQqUdPAprL-112" value="" style="endArrow=none;dashed=1;html=1;" edge="1" parent="1">
          <mxGeometry width="50" height="50" relative="1" as="geometry">
            <mxPoint x="160" y="480" as="sourcePoint" />
            <mxPoint x="160" y="420" as="targetPoint" />
          </mxGeometry>
        </mxCell>
        <mxCell id="qVPC-9UD2aIQqUdPAprL-113" value="&lt;span style=&quot;font-size: 12px ; text-align: right&quot;&gt;$$H_q$$&lt;/span&gt;" style="endArrow=none;html=1;edgeStyle=orthogonalEdgeStyle;labelBackgroundColor=none;" edge="1" parent="1">
          <mxGeometry x="-1" y="-20" width="50" height="50" relative="1" as="geometry">
            <mxPoint x="120" y="380" as="sourcePoint" />
            <mxPoint x="160" y="420" as="targetPoint" />
            <mxPoint x="-20" y="-20" as="offset" />
          </mxGeometry>
        </mxCell>
        <mxCell id="qVPC-9UD2aIQqUdPAprL-114" value="" style="endArrow=none;html=1;edgeStyle=orthogonalEdgeStyle;labelBackgroundColor=none;" edge="1" parent="1">
          <mxGeometry x="-1" y="-40" width="50" height="50" relative="1" as="geometry">
            <mxPoint x="120" y="380" as="sourcePoint" />
            <mxPoint x="160" y="340" as="targetPoint" />
            <mxPoint x="-40" y="-40" as="offset" />
          </mxGeometry>
        </mxCell>
        <mxCell id="qVPC-9UD2aIQqUdPAprL-122" value="" style="endArrow=none;dashed=1;html=1;labelBackgroundColor=none;" edge="1" parent="1">
          <mxGeometry width="50" height="50" relative="1" as="geometry">
            <mxPoint x="350" y="470" as="sourcePoint" />
            <mxPoint x="350" y="440" as="targetPoint" />
          </mxGeometry>
        </mxCell>
        <mxCell id="qVPC-9UD2aIQqUdPAprL-128" value="" style="endArrow=none;dashed=1;html=1;" edge="1" parent="1">
          <mxGeometry width="50" height="50" relative="1" as="geometry">
            <mxPoint x="480" y="335" as="sourcePoint" />
            <mxPoint x="480" y="255" as="targetPoint" />
          </mxGeometry>
        </mxCell>
        <mxCell id="qVPC-9UD2aIQqUdPAprL-130" value="" style="endArrow=none;dashed=1;html=1;" edge="1" parent="1">
          <mxGeometry width="50" height="50" relative="1" as="geometry">
            <mxPoint x="480" y="505" as="sourcePoint" />
            <mxPoint x="480" y="425" as="targetPoint" />
          </mxGeometry>
        </mxCell>
        <mxCell id="qVPC-9UD2aIQqUdPAprL-132" value="" style="endArrow=none;html=1;labelBackgroundColor=none;edgeStyle=orthogonalEdgeStyle;" edge="1" parent="1">
          <mxGeometry width="50" height="50" relative="1" as="geometry">
            <mxPoint x="480" y="420" as="sourcePoint" />
            <mxPoint x="520" y="380" as="targetPoint" />
            <Array as="points">
              <mxPoint x="480" y="420" />
              <mxPoint x="480" y="380" />
            </Array>
          </mxGeometry>
        </mxCell>
        <mxCell id="qVPC-9UD2aIQqUdPAprL-133" value="" style="endArrow=none;html=1;labelBackgroundColor=none;edgeStyle=orthogonalEdgeStyle;" edge="1" parent="1">
          <mxGeometry width="50" height="50" relative="1" as="geometry">
            <mxPoint x="520" y="380" as="sourcePoint" />
            <mxPoint x="480" y="335" as="targetPoint" />
            <Array as="points">
              <mxPoint x="520" y="380" />
              <mxPoint x="480" y="380" />
            </Array>
          </mxGeometry>
        </mxCell>
        <mxCell id="qVPC-9UD2aIQqUdPAprL-139" value="&lt;span style=&quot;color: rgb(0 , 0 , 0) ; font-family: &amp;#34;helvetica&amp;#34; ; font-size: 12px ; font-style: normal ; font-weight: 400 ; letter-spacing: normal ; text-align: right ; text-indent: 0px ; text-transform: none ; word-spacing: 0px ; background-color: rgb(248 , 249 , 250) ; display: inline ; float: none&quot;&gt;$$K_q$$&lt;/span&gt;" style="text;whiteSpace=wrap;html=1;" vertex="1" parent="1">
          <mxGeometry x="570" y="350" width="250" height="30" as="geometry" />
        </mxCell>
        <mxCell id="qVPC-9UD2aIQqUdPAprL-140" value="" style="endArrow=classic;html=1;labelBackgroundColor=none;entryX=0.5;entryY=1;entryDx=0;entryDy=0;" edge="1" parent="1" target="qVPC-9UD2aIQqUdPAprL-90">
          <mxGeometry width="50" height="50" relative="1" as="geometry">
            <mxPoint x="350" y="440" as="sourcePoint" />
            <mxPoint x="390" y="490" as="targetPoint" />
          </mxGeometry>
        </mxCell>
        <mxCell id="qVPC-9UD2aIQqUdPAprL-141" value="" style="endArrow=none;dashed=1;html=1;labelBackgroundColor=none;" edge="1" parent="1">
          <mxGeometry width="50" height="50" relative="1" as="geometry">
            <mxPoint x="290" y="460" as="sourcePoint" />
            <mxPoint x="289.5" y="430" as="targetPoint" />
          </mxGeometry>
        </mxCell>
        <mxCell id="qVPC-9UD2aIQqUdPAprL-142" value="" style="endArrow=classic;html=1;labelBackgroundColor=none;entryX=0.5;entryY=0;entryDx=0;entryDy=0;" edge="1" parent="1" target="qVPC-9UD2aIQqUdPAprL-51">
          <mxGeometry width="50" height="50" relative="1" as="geometry">
            <mxPoint x="290" y="460" as="sourcePoint" />
            <mxPoint x="360" y="435" as="targetPoint" />
          </mxGeometry>
        </mxCell>
        <mxCell id="qVPC-9UD2aIQqUdPAprL-148" value="" style="endArrow=none;html=1;jumpStyle=arc;exitX=0.5;exitY=0;exitDx=0;exitDy=0;jumpSize=10;endFill=0;" edge="1" parent="1">
          <mxGeometry width="50" height="50" relative="1" as="geometry">
            <mxPoint x="349.5" y="395" as="sourcePoint" />
            <mxPoint x="349.5" y="325" as="targetPoint" />
          </mxGeometry>
        </mxCell>
        <mxCell id="qVPC-9UD2aIQqUdPAprL-149" value="" style="endArrow=none;dashed=1;html=1;labelBackgroundColor=none;" edge="1" parent="1">
          <mxGeometry width="50" height="50" relative="1" as="geometry">
            <mxPoint x="349.5" y="325" as="sourcePoint" />
            <mxPoint x="349.5" y="295" as="targetPoint" />
          </mxGeometry>
        </mxCell>
        <mxCell id="qVPC-9UD2aIQqUdPAprL-150" value="" style="endArrow=classic;html=1;labelBackgroundColor=none;entryX=0.5;entryY=1;entryDx=0;entryDy=0;" edge="1" parent="1">
          <mxGeometry width="50" height="50" relative="1" as="geometry">
            <mxPoint x="349.5" y="295" as="sourcePoint" />
            <mxPoint x="349.5" y="280" as="targetPoint" />
          </mxGeometry>
        </mxCell>
        <mxCell id="qVPC-9UD2aIQqUdPAprL-151" value="" style="endArrow=none;html=1;jumpStyle=arc;exitX=0.5;exitY=1;exitDx=0;exitDy=0;jumpSize=10;endFill=0;" edge="1" parent="1">
          <mxGeometry width="50" height="50" relative="1" as="geometry">
            <mxPoint x="289.75" y="220" as="sourcePoint" />
            <mxPoint x="289.75" y="285" as="targetPoint" />
          </mxGeometry>
        </mxCell>
        <mxCell id="qVPC-9UD2aIQqUdPAprL-152" value="" style="endArrow=none;dashed=1;html=1;labelBackgroundColor=none;" edge="1" parent="1">
          <mxGeometry width="50" height="50" relative="1" as="geometry">
            <mxPoint x="289.75" y="315" as="sourcePoint" />
            <mxPoint x="289.25" y="285" as="targetPoint" />
          </mxGeometry>
        </mxCell>
        <mxCell id="qVPC-9UD2aIQqUdPAprL-153" value="" style="endArrow=classic;html=1;labelBackgroundColor=none;entryX=0.5;entryY=0;entryDx=0;entryDy=0;" edge="1" parent="1">
          <mxGeometry width="50" height="50" relative="1" as="geometry">
            <mxPoint x="289.75" y="315" as="sourcePoint" />
            <mxPoint x="289.75" y="335" as="targetPoint" />
          </mxGeometry>
        </mxCell>
        <mxCell id="qVPC-9UD2aIQqUdPAprL-156" value="&lt;span style=&quot;font-size: 12px&quot;&gt;$$\mathcal{Q}_q$$&lt;/span&gt;" style="edgeStyle=orthogonalEdgeStyle;rounded=1;jumpStyle=arc;jumpSize=10;orthogonalLoop=1;jettySize=auto;html=1;exitX=1;exitY=0.5;exitDx=0;exitDy=0;labelBackgroundColor=none;endArrow=classic;endFill=1;" edge="1" parent="1" source="qVPC-9UD2aIQqUdPAprL-155">
          <mxGeometry x="1" y="20" relative="1" as="geometry">
            <mxPoint x="560" y="440" as="targetPoint" />
            <mxPoint x="20" y="20" as="offset" />
          </mxGeometry>
        </mxCell>
        <mxCell id="qVPC-9UD2aIQqUdPAprL-155" value="$$\mathbin\Vert$$" style="ellipse;whiteSpace=wrap;html=1;labelBackgroundColor=none;fillColor=#f5f5f5;strokeColor=#666666;fontColor=#333333;" vertex="1" parent="1">
          <mxGeometry x="505" y="425" width="30" height="30" as="geometry" />
        </mxCell>
      </root>
    </mxGraphModel>
  </diagram>
</mxfile>
